<?xml version="1.0" encoding="UTF-8" standalone="no"?>
<svg
   xmlns:dc="http://purl.org/dc/elements/1.1/"
   xmlns:cc="http://creativecommons.org/ns#"
   xmlns:rdf="http://www.w3.org/1999/02/22-rdf-syntax-ns#"
   xmlns:svg="http://www.w3.org/2000/svg"
   xmlns="http://www.w3.org/2000/svg"
   xmlns:sodipodi="http://sodipodi.sourceforge.net/DTD/sodipodi-0.dtd"
   xmlns:inkscape="http://www.inkscape.org/namespaces/inkscape"
   width="32"
   height="32"
   viewBox="0 0 32 32"
   id="svg2"
   version="1.1"
   inkscape:version="0.48.5 r10040"
   sodipodi:docname="ic_directions_bike_48px.svg">
  <metadata
     id="metadata12">
    <rdf:RDF>
      <cc:Work
         rdf:about="">
        <dc:format>image/svg+xml</dc:format>
        <dc:type
           rdf:resource="http://purl.org/dc/dcmitype/StillImage" />
      </cc:Work>
    </rdf:RDF>
  </metadata>
  <defs
     id="defs10" />
  <sodipodi:namedview
     pagecolor="#ffffff"
     bordercolor="#666666"
     borderopacity="1"
     objecttolerance="10"
     gridtolerance="10"
     guidetolerance="10"
     inkscape:pageopacity="0"
     inkscape:pageshadow="2"
     inkscape:window-width="1010"
     inkscape:window-height="796"
     id="namedview8"
     showgrid="false"
     inkscape:zoom="4.9166667"
     inkscape:cx="24.40678"
     inkscape:cy="24"
     inkscape:window-x="2285"
     inkscape:window-y="466"
     inkscape:window-maximized="0"
     inkscape:current-layer="svg2" />
  <path
     d="M 0,-16 H 48 V 32 H 0 z"
     id="path4"
     inkscape:connector-curvature="0"
     style="fill:none" />
  <path
     d="m 21.288136,7.0706649 c 1.317203,0 2.394915,-1.0747327 2.394915,-2.4031291 0,-1.328396 -1.077712,-2.403129 -2.394915,-2.403129 -1.323856,0 -2.394916,1.074733 -2.394916,2.403129 0,1.3283964 1.07106,2.4031291 2.394916,2.4031291 z m 3.991525,9.6125161 c -3.672203,0 -6.652542,2.990561 -6.652542,6.675359 0,3.684798 2.980339,6.675359 6.652542,6.675359 3.672203,0 6.652542,-2.990561 6.652542,-6.675359 0,-3.684798 -2.980339,-6.675359 -6.652542,-6.675359 z m 0,11.34811 c -2.574534,0 -4.65678,-2.089387 -4.65678,-4.672751 0,-2.583364 2.082246,-4.672751 4.65678,-4.672751 2.574534,0 4.65678,2.089387 4.65678,4.672751 0,2.583364 -2.082246,4.672751 -4.65678,4.672751 z M 19.691525,14.013038 h 5.588136 V 11.609909 H 21.022034 L 18.4475,7.2508996 C 18.055,6.5833638 17.329873,6.1361148 16.498305,6.1361148 c -0.625339,0 -1.190805,0.2536636 -1.59661,0.6675358 L 9.9788136,11.736741 c -0.4124577,0.413872 -0.6652543,0.981277 -0.6652543,1.608761 0,0.841095 0.4457204,1.548683 1.1309327,1.962556 l 4.457203,2.710195 v 6.675359 h 2.394915 v -8.651265 l -2.993644,-2.22957 3.08678,-3.110717 2.301779,3.310978 z M 6.6525424,16.683181 C 2.980339,16.683181 0,19.673742 0,23.35854 c 0,3.684798 2.980339,6.675359 6.6525424,6.675359 3.6722036,0 6.6525426,-2.990561 6.6525426,-6.675359 0,-3.684798 -2.980339,-6.675359 -6.6525426,-6.675359 z m 0,11.34811 c -2.5745339,0 -4.6567797,-2.089387 -4.6567797,-4.672751 0,-2.583364 2.0822458,-4.672751 4.6567797,-4.672751 2.5745339,0 4.6567796,2.089387 4.6567796,4.672751 0,2.583364 -2.0822457,4.672751 -4.6567796,4.672751 z"
     id="path6"
     inkscape:connector-curvature="0" />
</svg>
